<svg width="83" height="63" viewBox="0 0 83 63" fill="none" xmlns="http://www.w3.org/2000/svg">
<rect width="83" height="63" fill="white"/>
<path d="M55.4749 34.4749C56.8417 33.108 56.8417 30.892 55.4749 29.5251L33.201 7.25126C31.8342 5.88443 29.6181 5.88443 28.2513 7.25126C26.8844 8.6181 26.8844 10.8342 28.2513 12.201L48.0503 32L28.2513 51.799C26.8844 53.1658 26.8844 55.3819 28.2513 56.7487C29.6181 58.1156 31.8342 58.1156 33.201 56.7487L55.4749 34.4749ZM52 35.5H53V28.5H52V35.5Z" fill="black"/>
<path d="M55.4749 34.4749C56.8417 33.108 56.8417 30.892 55.4749 29.5251L33.201 7.25126C31.8342 5.88443 29.6181 5.88443 28.2513 7.25126C26.8844 8.6181 26.8844 10.8342 28.2513 12.201L48.0503 32L28.2513 51.799C26.8844 53.1658 26.8844 55.3819 28.2513 56.7487C29.6181 58.1156 31.8342 58.1156 33.201 56.7487L55.4749 34.4749ZM52 35.5H53V28.5H52V35.5Z" fill="black"/>
</svg>
